<?xml version="1.0" encoding="UTF-8" standalone="no"?>
<!DOCTYPE svg PUBLIC "-//W3C//DTD SVG 1.1//EN" "http://www.w3.org/Graphics/SVG/1.1/DTD/svg11.dtd">
<svg width="100%" height="100%" viewBox="0 0 838 867" version="1.1" xmlns="http://www.w3.org/2000/svg" xmlns:xlink="http://www.w3.org/1999/xlink" xml:space="preserve" xmlns:serif="http://www.serif.com/" style="fill-rule:evenodd;clip-rule:evenodd;stroke-linejoin:round;stroke-miterlimit:2;">
    <g transform="matrix(1,0,0,1,-821,-413)">
        <g transform="matrix(4.65629,6.28353e-18,-6.28353e-18,4.65629,-5386.31,-3033.66)">
            <g id="F_00c">
                <g>
                    <g>
                        <path d="M1333.23,870.997C1347.3,899.234 1374.35,920.355 1404.85,926.263C1404.27,926.263 1403.68,926.261 1403.1,926.256C1362.52,925.923 1341.82,904.19 1333.23,870.997ZM1336.68,848.926C1347.59,861.313 1366.91,863.86 1380.96,874.051C1388.38,879.43 1394.31,886.777 1398.81,894.848C1402.67,901.783 1405.07,910.047 1410.64,915.964C1393.18,913.368 1376.54,905.93 1363.47,894.136C1350,881.981 1340.94,866.004 1336.68,848.926ZM1387.42,744.512C1397.15,741.587 1407.59,740.278 1417.88,740.232C1418.24,740.232 1418.61,740.232 1418.97,740.234C1446.3,740.461 1474.95,749.574 1492.99,769.574C1505.59,783.54 1511.82,802.246 1512.83,820.934C1513.5,833.292 1512.37,846.143 1508.93,858.247C1501.98,876.78 1488.93,893.041 1472.18,903.588C1466.71,907.03 1460.93,909.79 1454.96,911.891C1446.08,914.329 1436.82,915.528 1427.71,915.806C1421.31,916.001 1416.26,914.016 1413.23,909.467C1409.05,903.187 1406.47,895.821 1402.51,889.26C1393.77,874.767 1380.22,865.399 1365.44,858.85C1356.58,854.937 1346.43,851.623 1340.13,843.634C1336.8,839.422 1335.35,834.123 1335.16,828.795C1334.69,815.492 1337.1,801.943 1341.77,789.233C1351.01,769.17 1367.74,753.417 1387.42,744.512Z" style="fill:white;"/>
                    </g>
                </g>
            </g>
        </g>
    </g>
</svg>
